<?xml version = "1.0" encoding = "utf-8" standalone = "no"?><!DOCTYPE svg PUBLIC "-//W3C//DTD SVG 1.1//EN" "http://www.w3.org/Graphics/SVG/1.1/DTD/svg11.dtd">
<svg preserveAspectRatio = "xMinYMin meet" width = "100%" height = "100%" fill = "none" viewBox = "0 0 746.667 560.000"  version = "1.1" xmlns = "http://www.w3.org/2000/svg" xmlns:xlink = "http://www.w3.org/1999/xlink">
  <desc>Matlab Figure Converted by FIG2SVG</desc>
  <g id = "topgroup">
  <rect x = "0" y = "0" width = "746.667" height = "560.000" fill = "#ffffff" stroke = "none" />
  <g id  = "ID000000">
      <polygon fill = "#ffffff" fill-opacity = "1.000" stroke = "none" points = "97.067,498.400 675.733,498.400 675.733,42.000 97.067,42.000 "/>
      <polygon fill = "#ffffff" fill-opacity = "1.000" stroke = "none" points = "97.067,42.000 675.733,42.000 675.733,42.000 97.067,42.000 "/>
      <polygon fill = "#ffffff" fill-opacity = "1.000" stroke = "none" points = "97.067,498.400 97.067,498.400 97.067,42.000 97.067,42.000 "/>
      <polyline fill = "none" stroke-linecap = "square" stroke-linejoin = "miter" stroke = "#262626" stroke-width = "0.500pt" stroke-dasharray = "none" stroke-opacity = "0.150" points = "97.067,498.400 97.067,42.000 "/>
      <polyline fill = "none" stroke-linecap = "square" stroke-linejoin = "miter" stroke = "#262626" stroke-width = "0.500pt" stroke-dasharray = "none" stroke-opacity = "0.150" points = "169.400,498.400 169.400,42.000 "/>
      <polyline fill = "none" stroke-linecap = "square" stroke-linejoin = "miter" stroke = "#262626" stroke-width = "0.500pt" stroke-dasharray = "none" stroke-opacity = "0.150" points = "241.733,498.400 241.733,42.000 "/>
      <polyline fill = "none" stroke-linecap = "square" stroke-linejoin = "miter" stroke = "#262626" stroke-width = "0.500pt" stroke-dasharray = "none" stroke-opacity = "0.150" points = "314.067,498.400 314.067,42.000 "/>
      <polyline fill = "none" stroke-linecap = "square" stroke-linejoin = "miter" stroke = "#262626" stroke-width = "0.500pt" stroke-dasharray = "none" stroke-opacity = "0.150" points = "386.400,498.400 386.400,42.000 "/>
      <polyline fill = "none" stroke-linecap = "square" stroke-linejoin = "miter" stroke = "#262626" stroke-width = "0.500pt" stroke-dasharray = "none" stroke-opacity = "0.150" points = "458.733,498.400 458.733,42.000 "/>
      <polyline fill = "none" stroke-linecap = "square" stroke-linejoin = "miter" stroke = "#262626" stroke-width = "0.500pt" stroke-dasharray = "none" stroke-opacity = "0.150" points = "531.067,498.400 531.067,42.000 "/>
      <polyline fill = "none" stroke-linecap = "square" stroke-linejoin = "miter" stroke = "#262626" stroke-width = "0.500pt" stroke-dasharray = "none" stroke-opacity = "0.150" points = "603.400,498.400 603.400,42.000 "/>
      <polyline fill = "none" stroke-linecap = "square" stroke-linejoin = "miter" stroke = "#262626" stroke-width = "0.500pt" stroke-dasharray = "none" stroke-opacity = "0.150" points = "675.733,498.400 675.733,42.000 "/>
      <polyline fill = "none" stroke-linecap = "square" stroke-linejoin = "miter" stroke = "#262626" stroke-width = "0.500pt" stroke-dasharray = "none" stroke-opacity = "0.150" points = "97.067,498.400 675.733,498.400 "/>
      <polyline fill = "none" stroke-linecap = "square" stroke-linejoin = "miter" stroke = "#262626" stroke-width = "0.500pt" stroke-dasharray = "none" stroke-opacity = "0.150" points = "97.067,346.267 675.733,346.267 "/>
      <polyline fill = "none" stroke-linecap = "square" stroke-linejoin = "miter" stroke = "#262626" stroke-width = "0.500pt" stroke-dasharray = "none" stroke-opacity = "0.150" points = "97.067,194.133 675.733,194.133 "/>
      <polyline fill = "none" stroke-linecap = "square" stroke-linejoin = "miter" stroke = "#262626" stroke-width = "0.500pt" stroke-dasharray = "none" stroke-opacity = "0.150" points = "97.067,42.000 675.733,42.000 "/>
      <polyline fill = "none" stroke-linecap = "square" stroke-linejoin = "miter" stroke = "#262626" stroke-width = "0.500pt" stroke-dasharray = "none" stroke-opacity = "0.150" points = "97.067,42.000 97.067,42.000 "/>
      <polyline fill = "none" stroke-linecap = "square" stroke-linejoin = "miter" stroke = "#262626" stroke-width = "0.500pt" stroke-dasharray = "none" stroke-opacity = "0.150" points = "169.400,42.000 169.400,42.000 "/>
      <polyline fill = "none" stroke-linecap = "square" stroke-linejoin = "miter" stroke = "#262626" stroke-width = "0.500pt" stroke-dasharray = "none" stroke-opacity = "0.150" points = "241.733,42.000 241.733,42.000 "/>
      <polyline fill = "none" stroke-linecap = "square" stroke-linejoin = "miter" stroke = "#262626" stroke-width = "0.500pt" stroke-dasharray = "none" stroke-opacity = "0.150" points = "314.067,42.000 314.067,42.000 "/>
      <polyline fill = "none" stroke-linecap = "square" stroke-linejoin = "miter" stroke = "#262626" stroke-width = "0.500pt" stroke-dasharray = "none" stroke-opacity = "0.150" points = "386.400,42.000 386.400,42.000 "/>
      <polyline fill = "none" stroke-linecap = "square" stroke-linejoin = "miter" stroke = "#262626" stroke-width = "0.500pt" stroke-dasharray = "none" stroke-opacity = "0.150" points = "458.733,42.000 458.733,42.000 "/>
      <polyline fill = "none" stroke-linecap = "square" stroke-linejoin = "miter" stroke = "#262626" stroke-width = "0.500pt" stroke-dasharray = "none" stroke-opacity = "0.150" points = "531.067,42.000 531.067,42.000 "/>
      <polyline fill = "none" stroke-linecap = "square" stroke-linejoin = "miter" stroke = "#262626" stroke-width = "0.500pt" stroke-dasharray = "none" stroke-opacity = "0.150" points = "603.400,42.000 603.400,42.000 "/>
      <polyline fill = "none" stroke-linecap = "square" stroke-linejoin = "miter" stroke = "#262626" stroke-width = "0.500pt" stroke-dasharray = "none" stroke-opacity = "0.150" points = "675.733,42.000 675.733,42.000 "/>
      <polyline fill = "none" stroke-linecap = "square" stroke-linejoin = "miter" stroke = "#262626" stroke-width = "0.500pt" stroke-dasharray = "none" stroke-opacity = "0.150" points = "97.067,42.000 675.733,42.000 "/>
      <polyline fill = "none" stroke-linecap = "square" stroke-linejoin = "miter" stroke = "#262626" stroke-width = "0.500pt" stroke-dasharray = "none" stroke-opacity = "0.150" points = "97.067,42.000 675.733,42.000 "/>
      <polyline fill = "none" stroke-linecap = "square" stroke-linejoin = "miter" stroke = "#262626" stroke-width = "0.500pt" stroke-dasharray = "none" stroke-opacity = "0.150" points = "97.067,42.000 675.733,42.000 "/>
      <polyline fill = "none" stroke-linecap = "square" stroke-linejoin = "miter" stroke = "#262626" stroke-width = "0.500pt" stroke-dasharray = "none" stroke-opacity = "0.150" points = "97.067,498.400 97.067,498.400 "/>
      <polyline fill = "none" stroke-linecap = "square" stroke-linejoin = "miter" stroke = "#262626" stroke-width = "0.500pt" stroke-dasharray = "none" stroke-opacity = "0.150" points = "97.067,346.267 97.067,346.267 "/>
      <polyline fill = "none" stroke-linecap = "square" stroke-linejoin = "miter" stroke = "#262626" stroke-width = "0.500pt" stroke-dasharray = "none" stroke-opacity = "0.150" points = "97.067,194.133 97.067,194.133 "/>
      <polyline fill = "none" stroke-linecap = "square" stroke-linejoin = "miter" stroke = "#262626" stroke-width = "0.500pt" stroke-dasharray = "none" stroke-opacity = "0.150" points = "97.067,42.000 97.067,42.000 "/>
      <polyline fill = "none" stroke-linecap = "square" stroke-linejoin = "miter" stroke = "#262626" stroke-width = "0.500pt" stroke-dasharray = "none" stroke-opacity = "0.150" points = "97.067,498.400 97.067,42.000 "/>
      <polyline fill = "none" stroke-linecap = "square" stroke-linejoin = "miter" stroke = "#262626" stroke-width = "0.500pt" stroke-dasharray = "none" stroke-opacity = "0.150" points = "97.067,498.400 97.067,42.000 "/>
      <polyline fill = "none" stroke-linecap = "square" stroke-linejoin = "miter" stroke = "#262626" stroke-width = "0.500pt" stroke-dasharray = "none" stroke-opacity = "0.150" points = "97.067,498.400 97.067,42.000 "/>
    <g>
<g id = "ID000002" >
  <g transform = "translate(72.400,270.200)">
    <g transform = "rotate(-90.000)">
      <text x = "0.000" y = "-0.2em" font-family = "Helvetica" text-anchor = "middle" dominant-baseline = "auto" font-size = "11.000pt" fill = "#262626"><tspan>Power [W]</tspan></text>
    </g>
  </g>
</g>
<g id = "ID000003" >
  <g transform = "translate(386.400,521.720)">
    <g transform = "rotate(-0.000)">
      <text x = "0.000" y = "0.9em" font-family = "Helvetica" text-anchor = "middle" dominant-baseline = "auto" font-size = "11.000pt" fill = "#262626"><tspan>Frequency [<tspan>&#969;</tspan>]</tspan></text>
    </g>
  </g>
</g>
<g id = "ID000004" >
</g>
<g id = "ID000005" clip-path = "url(#ID000001)" >
      <polyline fill = "none" stroke-linecap = "square" stroke-linejoin = "round" stroke = "#0071bc" stroke-width = "0.500pt" stroke-dasharray = "none" stroke-opacity = "1.000" points = "97.067,497.248 101.588,495.430 106.108,491.771 110.629,485.283 115.150,474.956 119.671,459.971 124.192,439.912 128.713,414.900 133.233,385.625 137.754,353.279 142.275,319.401 146.796,285.679 151.317,253.757 155.838,225.069 160.358,200.726 164.879,181.460 169.400,167.624 173.921,157.346 178.442,152.431 182.963,152.411 187.483,156.678 192.004,164.551 196.525,175.335 201.046,188.361 205.567,203.016 210.088,218.759 214.608,235.124 219.129,251.725 223.650,268.249 228.171,284.452 232.692,300.147 237.213,315.199 241.733,329.514 246.254,342.615 250.775,354.915 255.296,366.415 259.817,377.128 264.338,387.075 268.858,396.288 273.379,404.801 277.900,412.651 282.421,419.878 286.942,426.522 291.462,432.622 295.983,438.216 300.504,443.342 305.025,448.037 309.546,452.332 314.067,456.260 318.587,459.691 323.108,462.838 327.629,465.724 332.150,468.370 336.671,470.795 341.192,473.019 345.713,475.058 350.233,476.926 354.754,478.640 359.275,480.210 363.796,481.651 368.317,482.971 372.838,484.183 377.358,485.294 381.879,486.314 386.400,487.249 390.921,488.076 395.442,488.838 399.962,489.540 404.483,490.188 409.004,490.785 413.525,491.336 418.046,491.844 422.567,492.313 427.087,492.745 431.608,493.145 436.129,493.513 440.650,493.854 445.171,494.168 449.692,494.459 454.213,494.727 458.733,494.975 463.254,495.205 467.775,495.419 472.296,495.617 476.817,495.800 481.338,495.971 485.858,496.129 490.379,496.275 494.900,496.411 499.421,496.537 503.942,496.654 508.463,496.763 512.983,496.864 517.504,496.957 522.025,497.044 526.546,497.124 531.067,497.199 535.587,497.273 540.108,497.342 544.629,497.407 549.150,497.467 553.671,497.523 558.192,497.574 562.712,497.623 567.233,497.668 571.754,497.710 576.275,497.749 580.796,497.785 585.317,497.819 589.837,497.850 594.358,497.879 598.879,497.906 603.400,497.931 607.921,497.958 612.442,497.983 616.963,498.007 621.483,498.029 626.004,498.049 630.525,498.069 635.046,498.086 639.567,498.103 644.087,498.119 648.608,498.133 653.129,498.146 657.650,498.159 662.171,498.170 666.692,498.181 671.212,498.191 675.733,498.200 "/>
</g>
<g id = "ID000006" clip-path = "url(#ID000001)" >
      <polyline fill = "none" stroke-linecap = "square" stroke-linejoin = "round" stroke = "#d85218" stroke-width = "0.500pt" stroke-dasharray = "none" stroke-opacity = "1.000" points = "113.141,495.532 118.164,491.431 123.187,483.663 128.210,470.684 133.233,451.214 138.256,424.615 143.280,391.144 148.303,352.001 153.326,309.165 158.349,265.084 163.372,222.307 168.395,183.155 173.419,147.747 178.442,118.617 183.465,96.912 188.488,82.774 193.511,75.882 198.534,75.583 203.557,81.020 208.581,91.237 213.604,105.265 218.627,122.183 223.650,141.154 228.673,161.448 233.696,182.446 238.719,203.640 243.743,224.311 248.766,244.003 253.789,262.990 258.812,281.129 263.835,298.326 268.858,314.523 273.881,329.696 278.905,343.843 283.928,356.982 288.951,369.143 293.974,380.365 298.997,390.695 304.020,400.184 309.044,408.883 314.067,416.846 319.090,423.781 324.113,430.140 329.136,435.965 334.159,441.296 339.182,446.172 344.206,450.630 349.229,454.703 354.252,458.423 359.275,461.820 364.298,464.921 369.321,467.752 374.344,470.335 379.368,472.691 384.391,474.842 389.414,476.759 394.437,478.486 399.460,480.068 404.483,481.519 409.506,482.849 414.530,484.068 419.553,485.185 424.576,486.210 429.599,487.149 434.622,488.011 439.645,488.801 444.669,489.526 449.692,490.190 454.715,490.800 459.738,491.360 464.761,491.876 469.784,492.352 474.807,492.790 479.831,493.193 484.854,493.565 489.877,493.907 494.900,494.222 499.923,494.513 504.946,494.780 509.969,495.026 514.993,495.253 520.016,495.462 525.039,495.655 530.062,495.832 535.085,496.005 540.108,496.166 545.131,496.316 550.155,496.454 555.178,496.581 560.201,496.699 565.224,496.809 570.247,496.909 575.270,497.002 580.294,497.088 585.317,497.167 590.340,497.240 595.363,497.308 600.386,497.370 605.409,497.430 610.432,497.492 615.456,497.549 620.479,497.601 625.502,497.650 630.525,497.696 635.548,497.737 640.571,497.776 645.594,497.812 650.618,497.845 655.641,497.875 660.664,497.903 665.687,497.929 670.710,497.952 675.733,497.974 "/>
</g>
<g id = "ID000007" clip-path = "url(#ID000001)" >
      <polyline fill = "none" stroke-linecap = "square" stroke-linejoin = "round" stroke = "#ecb01f" stroke-width = "0.500pt" stroke-dasharray = "none" stroke-opacity = "1.000" points = "97.067,497.518 101.588,496.126 106.108,493.325 110.629,488.358 115.150,480.450 119.671,468.978 124.192,453.620 128.713,434.470 133.233,412.057 137.754,387.292 142.275,361.354 146.796,335.536 151.317,311.096 155.838,289.131 160.358,270.493 164.879,255.743 169.400,245.149 173.921,237.281 178.442,233.517 182.963,233.502 187.483,236.769 192.004,242.797 196.525,251.053 201.046,261.026 205.567,272.247 210.088,284.300 214.608,296.829 219.129,309.539 223.650,322.191 228.171,334.596 232.692,346.613 237.213,358.137 241.733,369.097 246.254,379.127 250.775,388.544 255.296,397.349 259.817,405.551 264.338,413.167 268.858,420.221 273.379,426.738 277.900,432.749 282.421,438.282 286.942,443.368 291.462,448.038 295.983,452.322 300.504,456.247 305.025,459.840 309.546,463.129 314.067,466.137 318.587,468.764 323.108,471.173 327.629,473.382 332.150,475.408 336.671,477.265 341.192,478.968 345.713,480.528 350.233,481.959 354.754,483.271 359.275,484.474 363.796,485.576 368.317,486.588 372.838,487.515 377.358,488.366 381.879,489.147 386.400,489.863 390.921,490.496 395.442,491.079 399.962,491.617 404.483,492.113 409.004,492.570 413.525,492.991 418.046,493.380 422.567,493.739 427.087,494.071 431.608,494.376 436.129,494.659 440.650,494.919 445.171,495.160 449.692,495.383 454.213,495.588 458.733,495.778 463.254,495.954 467.775,496.117 472.296,496.269 476.817,496.410 481.338,496.540 485.858,496.661 490.379,496.773 494.900,496.877 499.421,496.974 503.942,497.063 508.463,497.147 512.983,497.224 517.504,497.295 522.025,497.362 526.546,497.423 531.067,497.481 535.587,497.537 540.108,497.590 544.629,497.640 549.150,497.685 553.671,497.728 558.192,497.768 562.712,497.805 567.233,497.839 571.754,497.872 576.275,497.901 580.796,497.929 585.317,497.955 589.837,497.979 594.358,498.001 598.879,498.022 603.400,498.041 607.921,498.062 612.442,498.081 616.963,498.099 621.483,498.116 626.004,498.132 630.525,498.146 635.046,498.160 639.567,498.173 644.087,498.185 648.608,498.196 653.129,498.206 657.650,498.215 662.171,498.224 666.692,498.232 671.212,498.240 675.733,498.247 "/>
</g>
<g id = "ID000008" clip-path = "url(#ID000001)" >
      <polyline fill = "none" stroke-linecap = "square" stroke-linejoin = "round" stroke = "#7d2e8d" stroke-width = "0.500pt" stroke-dasharray = "none" stroke-opacity = "1.000" points = "133.233,492.382 138.884,484.616 144.535,470.880 150.186,449.463 155.838,419.510 161.489,381.396 167.140,336.777 172.791,287.411 178.442,236.420 184.093,187.526 189.744,143.519 195.395,106.486 201.046,77.704 206.697,57.683 212.348,46.282 217.999,42.882 223.650,46.544 229.301,56.162 234.952,70.579 240.603,88.674 246.254,108.366 251.905,129.517 257.556,151.679 263.207,174.264 268.858,196.800 274.509,218.917 280.160,240.334 285.811,260.850 291.462,280.324 297.114,298.670 302.765,315.843 308.416,331.832 314.067,346.649 319.718,359.606 325.369,371.588 331.020,382.635 336.671,392.796 342.322,402.121 347.973,410.662 353.624,418.474 359.275,425.608 364.926,432.116 370.577,438.046 376.228,443.445 381.879,448.356 387.530,452.785 393.181,456.685 398.832,460.245 404.483,463.494 410.134,466.458 415.785,469.160 421.436,471.624 427.087,473.870 432.739,475.916 438.390,477.780 444.041,479.479 449.692,481.026 455.343,482.435 460.994,483.720 466.645,484.897 472.296,485.972 477.947,486.956 483.598,487.855 489.249,488.677 494.900,489.428 500.551,490.114 506.202,490.741 511.853,491.314 517.504,491.837 523.155,492.314 528.806,492.750 534.457,493.165 540.108,493.556 545.759,493.914 551.410,494.243 557.061,494.544 562.712,494.820 568.364,495.073 574.015,495.304 579.666,495.516 585.317,495.709 590.968,495.886 596.619,496.048 602.270,496.195 607.921,496.347 613.572,496.490 619.223,496.623 624.874,496.744 630.525,496.855 636.176,496.957 641.827,497.051 647.478,497.136 653.129,497.214 658.780,497.286 664.431,497.351 670.082,497.409 675.733,497.463 "/>
</g>
<g id = "ID000009" clip-path = "url(#ID000001)" >
      <polyline fill = "none" stroke-linecap = "square" stroke-linejoin = "round" stroke = "#76ab2f" stroke-width = "0.500pt" stroke-dasharray = "none" stroke-opacity = "1.000" points = "193.511,494.076 201.046,489.666 208.581,482.880 216.115,473.602 223.650,462.140 231.185,449.171 238.719,435.604 246.254,422.199 253.789,409.749 261.324,399.034 268.858,390.509 276.393,384.396 283.928,380.718 291.462,379.338 298.997,380.013 306.532,382.432 314.067,386.265 321.601,390.434 329.136,395.444 336.671,401.038 344.206,406.992 351.740,413.119 359.275,419.266 366.810,425.313 374.344,431.169 381.879,436.767 389.414,441.944 396.949,446.659 404.483,451.086 412.018,455.215 419.553,459.042 427.087,462.573 434.622,465.816 442.157,468.783 449.692,471.488 457.226,473.947 464.761,476.187 472.296,478.227 479.831,480.080 487.365,481.759 494.900,483.277 502.435,484.647 509.969,485.882 517.504,486.994 525.039,487.992 532.574,488.900 540.108,489.768 547.643,490.551 555.178,491.255 562.712,491.888 570.247,492.456 577.782,492.965 585.317,493.421 592.851,493.828 600.386,494.190 607.921,494.545 615.456,494.885 622.990,495.191 630.525,495.465 638.060,495.710 645.594,495.929 653.129,496.124 660.664,496.297 668.199,496.450 675.733,496.585 "/>
</g>
<g id = "ID000010" clip-path = "url(#ID000001)" >
      <polyline fill = "none" stroke-linecap = "square" stroke-linejoin = "round" stroke = "#4cbded" stroke-width = "0.500pt" stroke-dasharray = "none" stroke-opacity = "1.000" points = "133.233,494.548 138.884,489.578 144.535,480.787 150.186,467.081 155.838,447.910 161.489,423.517 167.140,394.961 172.791,363.367 178.442,330.733 184.093,299.441 189.744,271.276 195.395,247.575 201.046,229.155 206.697,216.341 212.348,209.045 217.999,206.868 223.650,209.212 229.301,215.368 234.952,224.595 240.603,236.176 246.254,248.778 251.905,262.315 257.556,276.498 263.207,290.953 268.858,305.376 274.509,319.531 280.160,333.238 285.811,346.368 291.462,358.831 297.114,370.573 302.765,381.564 308.416,391.796 314.067,401.279 319.718,409.572 325.369,417.240 331.020,424.311 336.671,430.813 342.322,436.781 347.973,442.248 353.624,447.247 359.275,451.813 364.926,455.978 370.577,459.773 376.228,463.229 381.879,466.372 387.530,469.206 393.181,471.702 398.832,473.981 404.483,476.060 410.134,477.957 415.785,479.687 421.436,481.263 427.087,482.701 432.739,484.010 438.390,485.203 444.041,486.290 449.692,487.281 455.343,488.182 460.994,489.005 466.645,489.758 472.296,490.446 477.947,491.076 483.598,491.651 489.249,492.177 494.900,492.658 500.551,493.097 506.202,493.498 511.853,493.865 517.504,494.199 523.155,494.505 528.806,494.784 534.457,495.050 540.108,495.300 545.759,495.529 551.410,495.739 557.061,495.932 562.712,496.109 568.364,496.271 574.015,496.419 579.666,496.554 585.317,496.678 590.968,496.791 596.619,496.894 602.270,496.989 607.921,497.086 613.572,497.178 619.223,497.262 624.874,497.340 630.525,497.411 636.176,497.477 641.827,497.537 647.478,497.591 653.129,497.641 658.780,497.687 664.431,497.728 670.082,497.766 675.733,497.800 "/>
</g>
<g id = "ID000011" clip-path = "url(#ID000001)" >
      <polyline fill = "none" stroke-linecap = "square" stroke-linejoin = "round" stroke = "#a1132e" stroke-width = "0.500pt" stroke-dasharray = "none" stroke-opacity = "1.000" points = "133.233,496.233 138.884,493.438 144.535,488.493 150.186,480.783 155.838,470.000 161.489,456.279 167.140,440.216 172.791,422.444 178.442,404.087 184.093,386.485 189.744,370.643 195.395,357.311 201.046,346.950 206.697,339.742 212.348,335.638 217.999,334.414 223.650,335.732 229.301,339.194 234.952,344.385 240.603,350.899 246.254,357.988 251.905,365.602 257.556,373.580 263.207,381.711 268.858,389.824 274.509,397.786 280.160,405.496 285.811,412.882 291.462,419.892 297.114,426.497 302.765,432.680 308.416,438.435 314.067,443.770 319.718,448.434 325.369,452.748 331.020,456.725 336.671,460.383 342.322,463.739 347.973,466.814 353.624,469.627 359.275,472.195 364.926,474.538 370.577,476.673 376.228,478.616 381.879,480.384 387.530,481.979 393.181,483.383 398.832,484.664 404.483,485.834 410.134,486.901 415.785,487.874 421.436,488.761 427.087,489.569 432.739,490.306 438.390,490.977 444.041,491.588 449.692,492.145 455.343,492.653 460.994,493.115 466.645,493.539 472.296,493.926 477.947,494.280 483.598,494.604 489.249,494.900 494.900,495.170 500.551,495.417 506.202,495.643 511.853,495.849 517.504,496.037 523.155,496.209 528.806,496.366 534.457,496.515 540.108,496.656 545.759,496.785 551.410,496.903 557.061,497.012 562.712,497.111 568.364,497.202 574.015,497.286 579.666,497.362 585.317,497.431 590.968,497.495 596.619,497.553 602.270,497.606 607.921,497.661 613.572,497.713 619.223,497.760 624.874,497.804 630.525,497.844 636.176,497.881 641.827,497.914 647.478,497.945 653.129,497.973 658.780,497.999 664.431,498.022 670.082,498.043 675.733,498.063 "/>
</g>
<g id = "ID000012" clip-path = "url(#ID000001)" >
      <polyline fill = "none" stroke-linecap = "square" stroke-linejoin = "round" stroke = "#0071bc" stroke-width = "0.500pt" stroke-dasharray = "none" stroke-opacity = "1.000" points = "113.141,497.125 118.164,495.303 123.187,491.850 128.210,486.082 133.233,477.429 138.256,465.607 143.280,450.731 148.303,433.334 153.326,414.296 158.349,394.704 163.372,375.692 168.395,358.291 173.419,342.554 178.442,329.608 183.465,319.961 188.488,313.677 193.511,310.614 198.534,310.481 203.557,312.898 208.581,317.439 213.604,323.673 218.627,331.193 223.650,339.624 228.673,348.644 233.696,357.976 238.719,367.396 243.743,376.583 248.766,385.335 253.789,393.773 258.812,401.835 263.835,409.478 268.858,416.677 273.881,423.420 278.905,429.708 283.928,435.548 288.951,440.952 293.974,445.940 298.997,450.531 304.020,454.748 309.044,458.615 314.067,462.154 319.090,465.236 324.113,468.062 329.136,470.651 334.159,473.020 339.182,475.188 344.206,477.169 349.229,478.979 354.252,480.633 359.275,482.142 364.298,483.521 369.321,484.778 374.344,485.926 379.368,486.974 384.391,487.930 389.414,488.782 394.437,489.549 399.460,490.253 404.483,490.897 409.506,491.488 414.530,492.030 419.553,492.527 424.576,492.982 429.599,493.400 434.622,493.783 439.645,494.134 444.669,494.456 449.692,494.751 454.715,495.022 459.738,495.271 464.761,495.501 469.784,495.712 474.807,495.907 479.831,496.086 484.854,496.251 489.877,496.403 494.900,496.543 499.923,496.672 504.946,496.791 509.969,496.901 514.993,497.002 520.016,497.094 525.039,497.180 530.062,497.259 535.085,497.335 540.108,497.407 545.131,497.474 550.155,497.535 555.178,497.592 560.201,497.644 565.224,497.693 570.247,497.737 575.270,497.779 580.294,497.817 585.317,497.852 590.340,497.885 595.363,497.915 600.386,497.942 605.409,497.969 610.432,497.996 615.456,498.022 620.479,498.045 625.502,498.067 630.525,498.087 635.548,498.106 640.571,498.123 645.594,498.139 650.618,498.153 655.641,498.167 660.664,498.179 665.687,498.191 670.710,498.201 675.733,498.211 "/>
</g>
<g id = "ID000013" >
</g>
  <clipPath id = "ID000001">
    <rect x = "97.067" y = "36.769" width = "621.683" height = "461.631"/>
  </clipPath>
    </g>
    <g>
      <polyline fill = "none" stroke-linecap = "square" stroke-linejoin = "miter" stroke = "#262626" stroke-width = "0.500pt" stroke-dasharray = "none" stroke-opacity = "1.000" points = "97.067,498.400 97.067,492.613 "/>
      <polyline fill = "none" stroke-linecap = "square" stroke-linejoin = "miter" stroke = "#262626" stroke-width = "0.500pt" stroke-dasharray = "none" stroke-opacity = "1.000" points = "169.400,498.400 169.400,492.613 "/>
      <polyline fill = "none" stroke-linecap = "square" stroke-linejoin = "miter" stroke = "#262626" stroke-width = "0.500pt" stroke-dasharray = "none" stroke-opacity = "1.000" points = "241.733,498.400 241.733,492.613 "/>
      <polyline fill = "none" stroke-linecap = "square" stroke-linejoin = "miter" stroke = "#262626" stroke-width = "0.500pt" stroke-dasharray = "none" stroke-opacity = "1.000" points = "314.067,498.400 314.067,492.613 "/>
      <polyline fill = "none" stroke-linecap = "square" stroke-linejoin = "miter" stroke = "#262626" stroke-width = "0.500pt" stroke-dasharray = "none" stroke-opacity = "1.000" points = "386.400,498.400 386.400,492.613 "/>
      <polyline fill = "none" stroke-linecap = "square" stroke-linejoin = "miter" stroke = "#262626" stroke-width = "0.500pt" stroke-dasharray = "none" stroke-opacity = "1.000" points = "458.733,498.400 458.733,492.613 "/>
      <polyline fill = "none" stroke-linecap = "square" stroke-linejoin = "miter" stroke = "#262626" stroke-width = "0.500pt" stroke-dasharray = "none" stroke-opacity = "1.000" points = "531.067,498.400 531.067,492.613 "/>
      <polyline fill = "none" stroke-linecap = "square" stroke-linejoin = "miter" stroke = "#262626" stroke-width = "0.500pt" stroke-dasharray = "none" stroke-opacity = "1.000" points = "603.400,498.400 603.400,492.613 "/>
      <polyline fill = "none" stroke-linecap = "square" stroke-linejoin = "miter" stroke = "#262626" stroke-width = "0.500pt" stroke-dasharray = "none" stroke-opacity = "1.000" points = "675.733,498.400 675.733,492.613 "/>
      <polyline fill = "none" stroke-linecap = "square" stroke-linejoin = "miter" stroke = "#262626" stroke-width = "0.500pt" stroke-dasharray = "none" stroke-opacity = "1.000" points = "97.067,498.400 675.733,498.400 "/>
  <g transform = "translate(97.067,507.528)">
    <g transform = "rotate(-0.000)">
      <text x = "0.000" y = "0.9em" font-family = "Helvetica" text-anchor = "middle" dominant-baseline = "auto" font-size = "10.000pt" fill = "#262626"><tspan>0.4</tspan></text>
    </g>
  </g>
  <g transform = "translate(169.400,507.528)">
    <g transform = "rotate(-0.000)">
      <text x = "0.000" y = "0.9em" font-family = "Helvetica" text-anchor = "middle" dominant-baseline = "auto" font-size = "10.000pt" fill = "#262626"><tspan>0.6</tspan></text>
    </g>
  </g>
  <g transform = "translate(241.733,507.528)">
    <g transform = "rotate(-0.000)">
      <text x = "0.000" y = "0.9em" font-family = "Helvetica" text-anchor = "middle" dominant-baseline = "auto" font-size = "10.000pt" fill = "#262626"><tspan>0.8</tspan></text>
    </g>
  </g>
  <g transform = "translate(314.067,507.528)">
    <g transform = "rotate(-0.000)">
      <text x = "0.000" y = "0.9em" font-family = "Helvetica" text-anchor = "middle" dominant-baseline = "auto" font-size = "10.000pt" fill = "#262626"><tspan>1</tspan></text>
    </g>
  </g>
  <g transform = "translate(386.400,507.528)">
    <g transform = "rotate(-0.000)">
      <text x = "0.000" y = "0.9em" font-family = "Helvetica" text-anchor = "middle" dominant-baseline = "auto" font-size = "10.000pt" fill = "#262626"><tspan>1.2</tspan></text>
    </g>
  </g>
  <g transform = "translate(458.733,507.528)">
    <g transform = "rotate(-0.000)">
      <text x = "0.000" y = "0.9em" font-family = "Helvetica" text-anchor = "middle" dominant-baseline = "auto" font-size = "10.000pt" fill = "#262626"><tspan>1.4</tspan></text>
    </g>
  </g>
  <g transform = "translate(531.067,507.528)">
    <g transform = "rotate(-0.000)">
      <text x = "0.000" y = "0.9em" font-family = "Helvetica" text-anchor = "middle" dominant-baseline = "auto" font-size = "10.000pt" fill = "#262626"><tspan>1.6</tspan></text>
    </g>
  </g>
  <g transform = "translate(603.400,507.528)">
    <g transform = "rotate(-0.000)">
      <text x = "0.000" y = "0.9em" font-family = "Helvetica" text-anchor = "middle" dominant-baseline = "auto" font-size = "10.000pt" fill = "#262626"><tspan>1.8</tspan></text>
    </g>
  </g>
  <g transform = "translate(675.733,507.528)">
    <g transform = "rotate(-0.000)">
      <text x = "0.000" y = "0.9em" font-family = "Helvetica" text-anchor = "middle" dominant-baseline = "auto" font-size = "10.000pt" fill = "#262626"><tspan>2</tspan></text>
    </g>
  </g>
      <polyline fill = "none" stroke-linecap = "square" stroke-linejoin = "miter" stroke = "#262626" stroke-width = "0.500pt" stroke-dasharray = "none" stroke-opacity = "1.000" points = "97.067,498.400 102.853,498.400 "/>
      <polyline fill = "none" stroke-linecap = "square" stroke-linejoin = "miter" stroke = "#262626" stroke-width = "0.500pt" stroke-dasharray = "none" stroke-opacity = "1.000" points = "97.067,346.267 102.853,346.267 "/>
      <polyline fill = "none" stroke-linecap = "square" stroke-linejoin = "miter" stroke = "#262626" stroke-width = "0.500pt" stroke-dasharray = "none" stroke-opacity = "1.000" points = "97.067,194.133 102.853,194.133 "/>
      <polyline fill = "none" stroke-linecap = "square" stroke-linejoin = "miter" stroke = "#262626" stroke-width = "0.500pt" stroke-dasharray = "none" stroke-opacity = "1.000" points = "97.067,42.000 102.853,42.000 "/>
      <polyline fill = "none" stroke-linecap = "square" stroke-linejoin = "miter" stroke = "#262626" stroke-width = "0.500pt" stroke-dasharray = "none" stroke-opacity = "1.000" points = "97.067,498.400 97.067,42.000 "/>
  <g transform = "translate(85.493,498.400)">
    <g transform = "rotate(-0.000)">
      <text x = "0.000" y = "0.3em" font-family = "Helvetica" text-anchor = "end" dominant-baseline = "auto" font-size = "10.000pt" fill = "#262626"><tspan>0</tspan></text>
    </g>
  </g>
  <g transform = "translate(85.493,346.267)">
    <g transform = "rotate(-0.000)">
      <text x = "0.000" y = "0.3em" font-family = "Helvetica" text-anchor = "end" dominant-baseline = "auto" font-size = "10.000pt" fill = "#262626"><tspan>5</tspan></text>
    </g>
  </g>
  <g transform = "translate(85.493,194.133)">
    <g transform = "rotate(-0.000)">
      <text x = "0.000" y = "0.3em" font-family = "Helvetica" text-anchor = "end" dominant-baseline = "auto" font-size = "10.000pt" fill = "#262626"><tspan>10</tspan></text>
    </g>
  </g>
  <g transform = "translate(85.493,42.000)">
    <g transform = "rotate(-0.000)">
      <text x = "0.000" y = "0.3em" font-family = "Helvetica" text-anchor = "end" dominant-baseline = "auto" font-size = "10.000pt" fill = "#262626"><tspan>15</tspan></text>
    </g>
  </g>
      <polyline fill = "none" stroke-linecap = "square" stroke-linejoin = "miter" stroke = "#262626" stroke-width = "0.500pt" stroke-dasharray = "none" stroke-opacity = "1.000" points = "97.067,498.400 97.067,498.400 "/>
  <g transform = "translate(97.067,37.000)">
    <g transform = "rotate(-0.000)">
      <text x = "0.000" y = "-0.2em" font-family = "Helvetica" text-anchor = "start" dominant-baseline = "auto" font-size = "10.000pt" fill = "#262626"><tspan>&#215; 10<tspan style = "font-size:65%; baseline-shift:super">4</tspan></tspan></text>
    </g>
  </g>
    </g>
  </g>
  <g id  = "ID000014">
  <clipPath id = "ID000015">
    <rect x = "603.333" y = "52.667" width = "62.000" height = "127.333"/>
  </clipPath>
  <g id = "ID000016">
    <rect fill = "#ffffff" stroke-linecap = "square" stroke-linejoin = "miter" stroke = "#262626" stroke-width = "0.500pt" stroke-dasharray = "none" stroke-opacity = "1.000" x = "603.333" y = "52.667" width = "62.000" height = "127.333"/>
  </g>
<g id = "ID000017" clip-path = "url(#ID000015)" >
</g>
<g id = "ID000018" clip-path = "url(#ID000015)" >
      <polyline fill = "none" stroke-linecap = "square" stroke-linejoin = "round" stroke = "#0071bc" stroke-width = "0.500pt" stroke-dasharray = "none" stroke-opacity = "1.000" points = "608.667,170.000 648.667,170.000 "/>
</g>
<g id = "ID000019" clip-path = "url(#ID000015)" >
</g>
<g id = "ID000020" clip-path = "url(#ID000015)" >
      <polyline fill = "none" stroke-linecap = "square" stroke-linejoin = "round" stroke = "#a1132e" stroke-width = "0.500pt" stroke-dasharray = "none" stroke-opacity = "1.000" points = "608.667,154.667 648.667,154.667 "/>
</g>
<g id = "ID000021" clip-path = "url(#ID000015)" >
</g>
<g id = "ID000022" clip-path = "url(#ID000015)" >
      <polyline fill = "none" stroke-linecap = "square" stroke-linejoin = "round" stroke = "#4cbded" stroke-width = "0.500pt" stroke-dasharray = "none" stroke-opacity = "1.000" points = "608.667,139.333 648.667,139.333 "/>
</g>
<g id = "ID000023" clip-path = "url(#ID000015)" >
</g>
<g id = "ID000024" clip-path = "url(#ID000015)" >
      <polyline fill = "none" stroke-linecap = "square" stroke-linejoin = "round" stroke = "#76ab2f" stroke-width = "0.500pt" stroke-dasharray = "none" stroke-opacity = "1.000" points = "608.667,124.000 648.667,124.000 "/>
</g>
<g id = "ID000025" clip-path = "url(#ID000015)" >
</g>
<g id = "ID000026" clip-path = "url(#ID000015)" >
      <polyline fill = "none" stroke-linecap = "square" stroke-linejoin = "round" stroke = "#7d2e8d" stroke-width = "0.500pt" stroke-dasharray = "none" stroke-opacity = "1.000" points = "608.667,108.667 648.667,108.667 "/>
</g>
<g id = "ID000027" clip-path = "url(#ID000015)" >
</g>
<g id = "ID000028" clip-path = "url(#ID000015)" >
      <polyline fill = "none" stroke-linecap = "square" stroke-linejoin = "round" stroke = "#ecb01f" stroke-width = "0.500pt" stroke-dasharray = "none" stroke-opacity = "1.000" points = "608.667,93.333 648.667,93.333 "/>
</g>
<g id = "ID000029" clip-path = "url(#ID000015)" >
</g>
<g id = "ID000030" clip-path = "url(#ID000015)" >
      <polyline fill = "none" stroke-linecap = "square" stroke-linejoin = "round" stroke = "#d85218" stroke-width = "0.500pt" stroke-dasharray = "none" stroke-opacity = "1.000" points = "608.667,78.000 648.667,78.000 "/>
</g>
<g id = "ID000031" clip-path = "url(#ID000015)" >
</g>
<g id = "ID000032" clip-path = "url(#ID000015)" >
      <polyline fill = "none" stroke-linecap = "square" stroke-linejoin = "round" stroke = "#0071bc" stroke-width = "0.500pt" stroke-dasharray = "none" stroke-opacity = "1.000" points = "608.667,62.667 648.667,62.667 "/>
</g>
<g id = "ID000033" >
  <g transform = "translate(652.667,170.000)">
    <g transform = "rotate(-0.000)">
      <text x = "0.000" y = "0.3em" font-family = "Helvetica" text-anchor = "start" dominant-baseline = "auto" font-size = "9.000pt" fill = "#000000"><tspan>8</tspan></text>
    </g>
  </g>
</g>
<g id = "ID000034" >
  <g transform = "translate(652.667,154.667)">
    <g transform = "rotate(-0.000)">
      <text x = "0.000" y = "0.3em" font-family = "Helvetica" text-anchor = "start" dominant-baseline = "auto" font-size = "9.000pt" fill = "#000000"><tspan>7</tspan></text>
    </g>
  </g>
</g>
<g id = "ID000035" >
  <g transform = "translate(652.667,139.333)">
    <g transform = "rotate(-0.000)">
      <text x = "0.000" y = "0.3em" font-family = "Helvetica" text-anchor = "start" dominant-baseline = "auto" font-size = "9.000pt" fill = "#000000"><tspan>6</tspan></text>
    </g>
  </g>
</g>
<g id = "ID000036" >
  <g transform = "translate(652.667,124.000)">
    <g transform = "rotate(-0.000)">
      <text x = "0.000" y = "0.3em" font-family = "Helvetica" text-anchor = "start" dominant-baseline = "auto" font-size = "9.000pt" fill = "#000000"><tspan>5</tspan></text>
    </g>
  </g>
</g>
<g id = "ID000037" >
  <g transform = "translate(652.667,108.667)">
    <g transform = "rotate(-0.000)">
      <text x = "0.000" y = "0.3em" font-family = "Helvetica" text-anchor = "start" dominant-baseline = "auto" font-size = "9.000pt" fill = "#000000"><tspan>4</tspan></text>
    </g>
  </g>
</g>
<g id = "ID000038" >
  <g transform = "translate(652.667,93.333)">
    <g transform = "rotate(-0.000)">
      <text x = "0.000" y = "0.3em" font-family = "Helvetica" text-anchor = "start" dominant-baseline = "auto" font-size = "9.000pt" fill = "#000000"><tspan>3</tspan></text>
    </g>
  </g>
</g>
<g id = "ID000039" >
  <g transform = "translate(652.667,78.000)">
    <g transform = "rotate(-0.000)">
      <text x = "0.000" y = "0.3em" font-family = "Helvetica" text-anchor = "start" dominant-baseline = "auto" font-size = "9.000pt" fill = "#000000"><tspan>2</tspan></text>
    </g>
  </g>
</g>
<g id = "ID000040" >
  <g transform = "translate(652.667,62.667)">
    <g transform = "rotate(-0.000)">
      <text x = "0.000" y = "0.3em" font-family = "Helvetica" text-anchor = "start" dominant-baseline = "auto" font-size = "9.000pt" fill = "#000000"><tspan>1</tspan></text>
    </g>
  </g>
</g>
  </g>
  </g>
</svg>
